<svg width="42" height="30" viewBox="0 0 42 30" fill="none" xmlns="http://www.w3.org/2000/svg">
<path d="M8.37982 7.5H7.25982C6.74068 7.5 6.31982 7.92085 6.31982 8.44V21.56C6.31982 22.0791 6.74068 22.5 7.25982 22.5H8.37982C8.89897 22.5 9.31982 22.0791 9.31982 21.56V8.44C9.31982 7.92085 8.89897 7.5 8.37982 7.5Z" fill="url(#paint0_linear_2624_2374)"/>
<path d="M3.87982 7.5H1.48982C1.17952 7.5 0.881927 7.62327 0.662509 7.84269C0.443092 8.0621 0.319824 8.3597 0.319824 8.67V21.33C0.319824 21.4836 0.350087 21.6358 0.408885 21.7777C0.467683 21.9197 0.553865 22.0487 0.662509 22.1573C0.771154 22.266 0.900134 22.3521 1.04208 22.4109C1.18404 22.4697 1.33618 22.5 1.48982 22.5H3.87982C4.00327 22.5 4.1255 22.4757 4.23955 22.4284C4.35359 22.3812 4.45722 22.312 4.54451 22.2247C4.63179 22.1374 4.70103 22.0338 4.74827 21.9197C4.79551 21.8057 4.81982 21.6834 4.81982 21.56V8.44C4.81982 8.31656 4.79551 8.19432 4.74827 8.08028C4.70103 7.96623 4.63179 7.86261 4.54451 7.77532C4.45722 7.68803 4.35359 7.61879 4.23955 7.57155C4.1255 7.52431 4.00327 7.5 3.87982 7.5V7.5Z" fill="url(#paint1_linear_2624_2374)"/>
<path d="M41.2698 14.1097L26.2698 1.17975C26.1 1.03133 25.891 0.935143 25.6678 0.902756C25.4447 0.870368 25.2169 0.903163 25.0119 0.997193C24.807 1.09122 24.6335 1.24248 24.5125 1.43277C24.3915 1.62305 24.3281 1.84425 24.3298 2.06975V7.49975H11.7598C11.6364 7.49975 11.5141 7.52406 11.4001 7.5713C11.2861 7.61854 11.1824 7.68778 11.0951 7.77507C11.0079 7.86236 10.9386 7.96598 10.8914 8.08003C10.8441 8.19407 10.8198 8.31631 10.8198 8.43975V21.5597C10.8198 21.8091 10.9189 22.0481 11.0951 22.2244C11.2714 22.4007 11.5105 22.4997 11.7598 22.4997H24.3198V27.9297C24.3181 28.1552 24.3815 28.3764 24.5025 28.5667C24.6235 28.757 24.797 28.9083 25.0019 29.0023C25.2069 29.0963 25.4347 29.1291 25.6578 29.0967C25.881 29.0644 26.09 28.9682 26.2598 28.8197L41.2598 15.8897C41.3892 15.7806 41.4933 15.6448 41.565 15.4915C41.6368 15.3383 41.6744 15.1713 41.6754 15.0021C41.6763 14.8328 41.6405 14.6654 41.5705 14.5114C41.5005 14.3573 41.3979 14.2203 41.2698 14.1097V14.1097Z" fill="url(#paint2_linear_2624_2374)"/>
<defs>
<linearGradient id="paint0_linear_2624_2374" x1="-10.6802" y1="15" x2="19.7998" y2="15" gradientUnits="userSpaceOnUse">
<stop stop-color="#F95811"/>
<stop offset="0.52" stop-color="#F95811" stop-opacity="0.31"/>
<stop offset="1" stop-color="#F95811"/>
</linearGradient>
<linearGradient id="paint1_linear_2624_2374" x1="-10.6802" y1="-9" x2="19.7998" y2="-9" gradientUnits="userSpaceOnUse">
<stop stop-color="#FEDCD1"/>
<stop offset="0.52" stop-color="#E3CDC6"/>
<stop offset="1" stop-color="#D87555" stop-opacity="0.68"/>
</linearGradient>
<linearGradient id="paint2_linear_2624_2374" x1="50.9898" y1="14.9997" x2="-23.2602" y2="14.9997" gradientUnits="userSpaceOnUse">
<stop stop-color="#F95811"/>
<stop offset="0.56" stop-color="#F95811" stop-opacity="0.67"/>
<stop offset="1" stop-color="#021E2F"/>
<stop offset="1" stop-color="#F95811"/>
</linearGradient>
</defs>
</svg>
